<mxfile host="app.diagrams.net" modified="2024-07-01T10:38:41.834Z" agent="Mozilla/5.0 (Windows NT 10.0; Win64; x64) AppleWebKit/537.36 (KHTML, like Gecko) Chrome/124.0.0.0 YaBrowser/24.6.0.0 Safari/537.36" etag="0eSP8Lsc9PTvbOlReXRm" version="24.6.2" type="device">
  <diagram name="Страница — 1" id="J06ceZAatoIPOJboitT3">
    <mxGraphModel dx="1155" dy="639" grid="1" gridSize="10" guides="1" tooltips="1" connect="1" arrows="1" fold="1" page="1" pageScale="1" pageWidth="827" pageHeight="1169" math="0" shadow="0">
      <root>
        <mxCell id="0" />
        <mxCell id="1" parent="0" />
        <mxCell id="BwnWWf9CsQSykDQ6EbLc-1" value="&lt;font style=&quot;font-size: 18px;&quot;&gt;Новости&lt;/font&gt;" style="swimlane;whiteSpace=wrap;html=1;" vertex="1" parent="1">
          <mxGeometry x="194" y="50" width="440" height="360" as="geometry" />
        </mxCell>
        <mxCell id="BwnWWf9CsQSykDQ6EbLc-3" value="зайти на сайт" style="ellipse;whiteSpace=wrap;html=1;" vertex="1" parent="BwnWWf9CsQSykDQ6EbLc-1">
          <mxGeometry x="52" y="60" width="94" height="50" as="geometry" />
        </mxCell>
        <mxCell id="BwnWWf9CsQSykDQ6EbLc-6" value="просмотр&amp;nbsp;&lt;div&gt;контактной информации&lt;/div&gt;" style="ellipse;whiteSpace=wrap;html=1;" vertex="1" parent="BwnWWf9CsQSykDQ6EbLc-1">
          <mxGeometry x="42" y="260" width="114" height="50" as="geometry" />
        </mxCell>
        <mxCell id="BwnWWf9CsQSykDQ6EbLc-8" value="просмотр&amp;nbsp;&lt;div&gt;новостей&lt;/div&gt;" style="ellipse;whiteSpace=wrap;html=1;" vertex="1" parent="BwnWWf9CsQSykDQ6EbLc-1">
          <mxGeometry x="42" y="160" width="114" height="50" as="geometry" />
        </mxCell>
        <mxCell id="BwnWWf9CsQSykDQ6EbLc-18" value="внесение&lt;div&gt;данных в БД&lt;/div&gt;" style="ellipse;whiteSpace=wrap;html=1;" vertex="1" parent="BwnWWf9CsQSykDQ6EbLc-1">
          <mxGeometry x="276" y="120" width="114" height="50" as="geometry" />
        </mxCell>
        <mxCell id="BwnWWf9CsQSykDQ6EbLc-27" style="rounded=0;orthogonalLoop=1;jettySize=auto;html=1;exitX=0.43;exitY=-0.039;exitDx=0;exitDy=0;dashed=1;entryX=0.853;entryY=0.947;entryDx=0;entryDy=0;entryPerimeter=0;exitPerimeter=0;" edge="1" parent="BwnWWf9CsQSykDQ6EbLc-1" source="BwnWWf9CsQSykDQ6EbLc-25" target="BwnWWf9CsQSykDQ6EbLc-30">
          <mxGeometry relative="1" as="geometry">
            <mxPoint x="312.66666666666674" y="220" as="targetPoint" />
          </mxGeometry>
        </mxCell>
        <mxCell id="BwnWWf9CsQSykDQ6EbLc-25" value="написание&lt;div&gt;&amp;nbsp;новостных&lt;div&gt;&amp;nbsp;статей&lt;/div&gt;&lt;/div&gt;" style="ellipse;whiteSpace=wrap;html=1;" vertex="1" parent="BwnWWf9CsQSykDQ6EbLc-1">
          <mxGeometry x="272" y="290" width="124" height="60" as="geometry" />
        </mxCell>
        <mxCell id="BwnWWf9CsQSykDQ6EbLc-29" value="include" style="text;html=1;align=center;verticalAlign=middle;whiteSpace=wrap;rounded=0;" vertex="1" parent="BwnWWf9CsQSykDQ6EbLc-1">
          <mxGeometry x="216" y="270" width="60" height="30" as="geometry" />
        </mxCell>
        <mxCell id="BwnWWf9CsQSykDQ6EbLc-31" style="rounded=0;orthogonalLoop=1;jettySize=auto;html=1;exitX=0.565;exitY=-0.025;exitDx=0;exitDy=0;entryX=0;entryY=1;entryDx=0;entryDy=0;dashed=1;exitPerimeter=0;" edge="1" parent="BwnWWf9CsQSykDQ6EbLc-1" source="BwnWWf9CsQSykDQ6EbLc-30" target="BwnWWf9CsQSykDQ6EbLc-18">
          <mxGeometry relative="1" as="geometry" />
        </mxCell>
        <mxCell id="BwnWWf9CsQSykDQ6EbLc-30" value="передача&lt;div&gt;информации для внесения в БД&lt;/div&gt;" style="ellipse;whiteSpace=wrap;html=1;" vertex="1" parent="BwnWWf9CsQSykDQ6EbLc-1">
          <mxGeometry x="166" y="210" width="124" height="60" as="geometry" />
        </mxCell>
        <mxCell id="BwnWWf9CsQSykDQ6EbLc-32" value="include" style="text;html=1;align=center;verticalAlign=middle;whiteSpace=wrap;rounded=0;" vertex="1" parent="BwnWWf9CsQSykDQ6EbLc-1">
          <mxGeometry x="256" y="180" width="60" height="30" as="geometry" />
        </mxCell>
        <mxCell id="BwnWWf9CsQSykDQ6EbLc-34" value="редактирование&lt;div&gt;БД&lt;/div&gt;" style="ellipse;whiteSpace=wrap;html=1;" vertex="1" parent="BwnWWf9CsQSykDQ6EbLc-1">
          <mxGeometry x="316" y="220" width="114" height="50" as="geometry" />
        </mxCell>
        <mxCell id="BwnWWf9CsQSykDQ6EbLc-35" style="rounded=0;orthogonalLoop=1;jettySize=auto;html=1;exitX=0.5;exitY=1;exitDx=0;exitDy=0;entryX=0.329;entryY=0.003;entryDx=0;entryDy=0;entryPerimeter=0;dashed=1;" edge="1" parent="BwnWWf9CsQSykDQ6EbLc-1" source="BwnWWf9CsQSykDQ6EbLc-18" target="BwnWWf9CsQSykDQ6EbLc-34">
          <mxGeometry relative="1" as="geometry" />
        </mxCell>
        <mxCell id="BwnWWf9CsQSykDQ6EbLc-36" value="extend" style="text;html=1;align=center;verticalAlign=middle;whiteSpace=wrap;rounded=0;" vertex="1" parent="BwnWWf9CsQSykDQ6EbLc-1">
          <mxGeometry x="336" y="180" width="60" height="30" as="geometry" />
        </mxCell>
        <mxCell id="BwnWWf9CsQSykDQ6EbLc-38" value="техническое обслуживание сайта" style="ellipse;whiteSpace=wrap;html=1;" vertex="1" parent="BwnWWf9CsQSykDQ6EbLc-1">
          <mxGeometry x="256" y="45" width="114" height="50" as="geometry" />
        </mxCell>
        <mxCell id="BwnWWf9CsQSykDQ6EbLc-9" style="rounded=0;orthogonalLoop=1;jettySize=auto;html=1;exitX=0.5;exitY=0.5;exitDx=0;exitDy=0;exitPerimeter=0;entryX=0;entryY=0.5;entryDx=0;entryDy=0;endArrow=none;endFill=0;" edge="1" parent="1" source="BwnWWf9CsQSykDQ6EbLc-2" target="BwnWWf9CsQSykDQ6EbLc-3">
          <mxGeometry relative="1" as="geometry" />
        </mxCell>
        <mxCell id="BwnWWf9CsQSykDQ6EbLc-10" style="rounded=0;orthogonalLoop=1;jettySize=auto;html=1;exitX=0.5;exitY=0.5;exitDx=0;exitDy=0;exitPerimeter=0;entryX=0;entryY=0.5;entryDx=0;entryDy=0;endArrow=none;endFill=0;" edge="1" parent="1" source="BwnWWf9CsQSykDQ6EbLc-2" target="BwnWWf9CsQSykDQ6EbLc-8">
          <mxGeometry relative="1" as="geometry" />
        </mxCell>
        <mxCell id="BwnWWf9CsQSykDQ6EbLc-11" style="rounded=0;orthogonalLoop=1;jettySize=auto;html=1;exitX=0.5;exitY=0.5;exitDx=0;exitDy=0;exitPerimeter=0;entryX=0;entryY=0;entryDx=0;entryDy=0;endArrow=none;endFill=0;" edge="1" parent="1" source="BwnWWf9CsQSykDQ6EbLc-2" target="BwnWWf9CsQSykDQ6EbLc-6">
          <mxGeometry relative="1" as="geometry" />
        </mxCell>
        <mxCell id="BwnWWf9CsQSykDQ6EbLc-2" value="гость" style="shape=umlActor;verticalLabelPosition=bottom;verticalAlign=top;html=1;outlineConnect=0;" vertex="1" parent="1">
          <mxGeometry x="90" y="140" width="30" height="60" as="geometry" />
        </mxCell>
        <mxCell id="BwnWWf9CsQSykDQ6EbLc-17" style="rounded=0;orthogonalLoop=1;jettySize=auto;html=1;exitX=0.5;exitY=0.5;exitDx=0;exitDy=0;exitPerimeter=0;endArrow=none;endFill=0;entryX=0.972;entryY=0.403;entryDx=0;entryDy=0;entryPerimeter=0;" edge="1" parent="1" source="BwnWWf9CsQSykDQ6EbLc-12" target="BwnWWf9CsQSykDQ6EbLc-18">
          <mxGeometry relative="1" as="geometry">
            <mxPoint x="560" y="150" as="targetPoint" />
          </mxGeometry>
        </mxCell>
        <mxCell id="BwnWWf9CsQSykDQ6EbLc-21" style="edgeStyle=orthogonalEdgeStyle;rounded=0;orthogonalLoop=1;jettySize=auto;html=1;exitX=0.5;exitY=0.5;exitDx=0;exitDy=0;exitPerimeter=0;endArrow=block;endFill=0;" edge="1" parent="1" source="BwnWWf9CsQSykDQ6EbLc-12">
          <mxGeometry relative="1" as="geometry">
            <mxPoint x="695" y="230" as="targetPoint" />
          </mxGeometry>
        </mxCell>
        <mxCell id="BwnWWf9CsQSykDQ6EbLc-33" style="rounded=0;orthogonalLoop=1;jettySize=auto;html=1;exitX=0.5;exitY=0.5;exitDx=0;exitDy=0;exitPerimeter=0;endArrow=none;endFill=0;entryX=0.5;entryY=0;entryDx=0;entryDy=0;" edge="1" parent="1" source="BwnWWf9CsQSykDQ6EbLc-12" target="BwnWWf9CsQSykDQ6EbLc-34">
          <mxGeometry relative="1" as="geometry">
            <mxPoint x="560" y="200" as="targetPoint" />
          </mxGeometry>
        </mxCell>
        <mxCell id="BwnWWf9CsQSykDQ6EbLc-37" style="rounded=0;orthogonalLoop=1;jettySize=auto;html=1;exitX=0.5;exitY=0.5;exitDx=0;exitDy=0;exitPerimeter=0;endArrow=none;endFill=0;entryX=1;entryY=0.5;entryDx=0;entryDy=0;" edge="1" parent="1" source="BwnWWf9CsQSykDQ6EbLc-12" target="BwnWWf9CsQSykDQ6EbLc-38">
          <mxGeometry relative="1" as="geometry">
            <mxPoint x="550" y="120" as="targetPoint" />
          </mxGeometry>
        </mxCell>
        <mxCell id="BwnWWf9CsQSykDQ6EbLc-12" value="администратор" style="shape=umlActor;verticalLabelPosition=bottom;verticalAlign=top;html=1;outlineConnect=0;" vertex="1" parent="1">
          <mxGeometry x="680" y="120" width="30" height="60" as="geometry" />
        </mxCell>
        <mxCell id="BwnWWf9CsQSykDQ6EbLc-20" style="edgeStyle=orthogonalEdgeStyle;rounded=0;orthogonalLoop=1;jettySize=auto;html=1;exitX=0.5;exitY=0;exitDx=0;exitDy=0;exitPerimeter=0;endArrow=block;endFill=0;" edge="1" parent="1" source="BwnWWf9CsQSykDQ6EbLc-13">
          <mxGeometry relative="1" as="geometry">
            <mxPoint x="695" y="330" as="targetPoint" />
          </mxGeometry>
        </mxCell>
        <mxCell id="BwnWWf9CsQSykDQ6EbLc-24" style="rounded=0;orthogonalLoop=1;jettySize=auto;html=1;exitX=0.5;exitY=0.5;exitDx=0;exitDy=0;exitPerimeter=0;endArrow=none;endFill=0;entryX=1;entryY=0.5;entryDx=0;entryDy=0;" edge="1" parent="1" source="BwnWWf9CsQSykDQ6EbLc-13" target="BwnWWf9CsQSykDQ6EbLc-25">
          <mxGeometry relative="1" as="geometry">
            <mxPoint x="570" y="330" as="targetPoint" />
          </mxGeometry>
        </mxCell>
        <mxCell id="BwnWWf9CsQSykDQ6EbLc-13" value="" style="shape=umlActor;verticalLabelPosition=bottom;verticalAlign=top;html=1;outlineConnect=0;" vertex="1" parent="1">
          <mxGeometry x="680" y="360" width="30" height="60" as="geometry" />
        </mxCell>
        <mxCell id="BwnWWf9CsQSykDQ6EbLc-14" value="сотрудники" style="shape=umlActor;verticalLabelPosition=bottom;verticalAlign=top;html=1;outlineConnect=0;" vertex="1" parent="1">
          <mxGeometry x="680" y="240" width="30" height="60" as="geometry" />
        </mxCell>
        <mxCell id="BwnWWf9CsQSykDQ6EbLc-19" value="журналист" style="text;html=1;align=center;verticalAlign=middle;resizable=0;points=[];autosize=1;strokeColor=none;fillColor=none;" vertex="1" parent="1">
          <mxGeometry x="660" y="418" width="80" height="30" as="geometry" />
        </mxCell>
      </root>
    </mxGraphModel>
  </diagram>
</mxfile>
